<svg xmlns="http://www.w3.org/2000/svg" viewBox="0 0 53.5 48.83"><defs><style>.cls-1{fill:#48484a;}.cls-2{fill:#f2f2f1;}</style></defs><title>09n</title><g id="Layer_2" data-name="Layer 2"><g id="Layer_1-2" data-name="Layer 1"><path class="cls-1" d="M9.4,42.44c-.89,1.89,1.35,3.34,2.39,1.11l1.34-2.87-2.39-1.11Z"/><path class="cls-1" d="M13.13,40.68c.88-1.9-1.35-3.34-2.39-1.12L9.4,42.43l2.39,1.12Z"/><path class="cls-1" d="M17.78,41.48c-.81,1.93,1.48,3.29,2.43,1l1.24-2.92-2.43-1Z"/><path class="cls-1" d="M21.45,39.58c.81-1.92-1.48-3.29-2.43-1l-1.23,2.92,2.43,1Z"/><path class="cls-1" d="M16.28,46.17a1.34,1.34,0,1,1,2.4,1.12Z"/><path class="cls-1" d="M18.68,47.29a1.34,1.34,0,1,1-2.4-1.12Z"/><path class="cls-1" d="M27.83,37.29a1.34,1.34,0,1,1,2.42,1.06Z"/><path class="cls-1" d="M30.25,38.35a1.34,1.34,0,1,1-2.42-1.06Z"/><path class="cls-1" d="M26.9,47.71c-1,2.18-3.82.87-2.79-1.31Z"/><path class="cls-1" d="M24.49,45.58c1-2.19,3.83-.87,2.8,1.31Z"/><rect class="cls-1" x="25.25" y="45.1" width="0.9" height="3.09" transform="translate(-27.45 50.06) rotate(-64.83)"/><path class="cls-1" d="M23.15,10.11S15,9.91,15,17.28s5.54,7,9.36,7h23.1c4.46,0,6-2.91,6-5.09s-.64-5.91-6.28-5.91c0,0,.7-9-8.1-5.37a11.54,11.54,0,0,0-1.58-3.82C36.52,2.55,34,0,30.61,0s-4.91,1.91-6,3.36S23.15,7.3,23.15,10.11Z"/><path class="cls-2" d="M39.42,20.72s.86-11-9.91-6.58a14.31,14.31,0,0,0-1.9-4.65c-1.33-1.9-4.45-5-8.57-5S13,6.85,11.69,8.6s-1.78,4.8-1.78,8.23c0,0-9.91-.22-9.91,8.78s6.79,8.58,11.47,8.58H12a3,3,0,0,1,.28-1.41c1.35-3,5.13-1.51,4.22,1.41H39.76c5.45,0,7.34-3.57,7.34-6.24S46.31,20.72,39.42,20.72Z"/><path class="cls-1" d="M13.1,33.15a1.34,1.34,0,1,1,2.41,1.08Z"/><path class="cls-1" d="M15.41,34.48A1.34,1.34,0,1,1,13,33.41Z"/><polygon class="cls-1" points="13.1 33.15 12.99 33.41 15.41 34.48 15.51 34.23 13.1 33.15"/></g></g></svg>