<svg xmlns="http://www.w3.org/2000/svg" viewBox="0 0 51.23 48.54"><defs><style>.cls-1{fill:#ec6e4c;}.cls-2{fill:#48484a;}.cls-3{fill:#f2f2f1;}</style></defs><title>10d</title><g id="Layer_2" data-name="Layer 2"><g id="Layer_1-2" data-name="Layer 1"><circle class="cls-1" cx="37.56" cy="13.67" r="13.67"/><path class="cls-2" d="M9.4,42.15c-.89,1.89,1.35,3.34,2.39,1.11l1.34-2.87-2.39-1.11Z"/><path class="cls-2" d="M13.13,40.39c.88-1.9-1.35-3.34-2.39-1.12L9.4,42.14l2.39,1.12Z"/><path class="cls-2" d="M17.78,41.19c-.81,1.93,1.48,3.29,2.43,1l1.24-2.92-2.43-1Z"/><path class="cls-2" d="M21.45,39.29c.81-1.92-1.48-3.29-2.43-1l-1.23,2.92,2.43,1Z"/><path class="cls-2" d="M16.28,45.88A1.35,1.35,0,0,1,17.94,45a1.34,1.34,0,0,1,.91,1.66,1.3,1.3,0,0,1-.17.38Z"/><path class="cls-2" d="M18.68,47a1.34,1.34,0,1,1-2.57-.75,1.24,1.24,0,0,1,.17-.37Z"/><path class="cls-2" d="M27.83,37a1.34,1.34,0,0,1,2.6.64,1.57,1.57,0,0,1-.18.42Z"/><path class="cls-2" d="M30.25,38.06a1.34,1.34,0,0,1-2.6-.65,1.38,1.38,0,0,1,.18-.41Z"/><path class="cls-2" d="M26.9,47.42a1.56,1.56,0,1,1-2.79-1.31Z"/><path class="cls-2" d="M24.49,45.29a1.56,1.56,0,1,1,2.8,1.31Z"/><rect class="cls-2" x="25.25" y="44.8" width="0.9" height="3.09" transform="translate(-27.18 49.89) rotate(-64.83)"/><path class="cls-3" d="M39.42,20.43s.86-11-9.91-6.58a14.22,14.22,0,0,0-1.9-4.65c-1.33-1.9-4.45-5-8.57-5s-6,2.36-7.35,4.11-1.78,4.8-1.78,8.23c0,0-9.91-.22-9.91,8.78S6.79,33.9,11.47,33.9H12a3,3,0,0,1,.28-1.41c1.35-3,5.13-1.51,4.22,1.41H39.76c5.45,0,7.34-3.57,7.34-6.24S46.31,20.43,39.42,20.43Z"/><path class="cls-2" d="M13.1,32.86a1.34,1.34,0,1,1,2.41,1.08Z"/><path class="cls-2" d="M15.41,34.19a1.34,1.34,0,0,1-2.6-.64,1.18,1.18,0,0,1,.19-.43Z"/><polygon class="cls-2" points="13.1 32.86 12.99 33.12 15.41 34.19 15.51 33.94 13.1 32.86"/></g></g></svg>